<svg width="33" height="32" viewBox="0 0 33 32" fill="none" xmlns="http://www.w3.org/2000/svg">
<path d="M15.9766 28.4789L16.5 32L17.0234 28.4789C18.441 18.9465 19.4465 17.9406 28.9789 16.5234L32.5 16L28.9793 15.4766C19.4468 14.0594 18.441 13.0535 17.0237 3.52107L16.5 0L15.9766 3.52107C14.559 13.0535 13.5535 14.0594 4.02107 15.4766L0.5 16L4.02071 16.5234C13.5535 17.941 14.559 18.9465 15.9766 28.4789ZM13.7928 13.2928C15.178 11.9079 15.8973 9.96764 16.5 6.82844C17.1027 9.96764 17.822 11.9076 19.2072 13.2928C20.5921 14.6777 22.5324 15.3973 25.6716 16C22.5324 16.6027 20.5924 17.3223 19.2072 18.7072C17.822 20.0921 17.1027 22.0324 16.5 25.1716C15.8973 22.0324 15.178 20.0924 13.7928 18.7072C12.4079 17.3223 10.4676 16.6027 7.32844 16C10.4676 15.3973 12.4079 14.6777 13.7928 13.2928Z" fill="#0052B4"/>
</svg>
