<svg width="29" height="28" viewBox="0 0 29 28" fill="none" xmlns="http://www.w3.org/2000/svg">
<path d="M1.20804 15.2795C1.89784 15.2795 2.5714 15.2466 3.23975 15.2887C3.93766 15.3325 4.65586 15.1066 5.35609 15.3913C5.38913 15.6592 5.42275 15.8909 5.44478 16.1237C5.58274 17.5735 6.12646 18.9162 6.90552 20.09C7.68401 21.265 8.77203 22.2274 9.91744 23.086C10.7208 23.687 11.5967 24.1227 12.6042 24.2938C12.985 24.3578 13.349 24.5203 13.7687 24.6517C13.7293 24.9317 13.7444 25.1772 13.6574 25.3789C13.3166 26.1712 13.6278 26.8489 14.018 27.4983C14.3275 28.0129 14.855 28.1207 15.4833 27.8718C15.8949 27.7087 16.0491 27.3779 15.9708 26.7855C15.9505 26.6299 15.87 26.483 15.8514 26.3274C15.7807 25.7442 15.6891 25.1593 15.8601 24.5162C16.2102 24.4621 16.5574 24.4039 16.907 24.3543C18.064 24.1878 19.1294 23.7354 20.098 23.1309C21.2695 22.3985 22.2955 21.4777 23.1488 20.3655C23.6154 19.7564 23.9748 19.1317 24.162 18.3901C24.442 17.2802 24.7544 16.1784 25.064 15.0766C25.1243 14.8582 25.2309 14.6548 25.3376 14.3903C25.7642 14.4376 26.1543 14.4647 26.5386 14.5252C27.0052 14.5983 27.4643 14.7234 27.9321 14.7851C28.5976 14.8703 29.0416 14.2854 28.8422 13.6527C28.6341 12.9923 28.2312 12.5901 27.5339 12.4386C26.9902 12.3204 26.4638 12.166 25.8952 12.2213C25.5486 12.2553 25.1828 12.2933 24.8912 12.0888C24.5324 11.2601 24.2142 10.4545 23.8374 9.67542C23.318 8.60301 22.6816 7.59572 21.6915 6.88866C20.7913 6.24499 19.8604 5.6428 18.9184 5.06194C18.5538 4.83662 18.1272 4.70524 17.7202 4.55426C17.0936 4.32261 16.4589 4.1117 15.7523 3.86564C15.7523 3.18681 15.7482 2.51836 15.7535 1.84991C15.7604 0.927901 15.1709 0.427138 14.4446 0.0398965C14.2394 -0.0701677 14.0267 0.0623704 13.964 0.255991C13.8817 0.512424 13.8487 0.794211 13.8475 1.06505C13.8452 1.73581 13.8806 2.40541 13.8835 3.07617C13.8852 3.34413 13.8429 3.61324 13.8191 3.90655C13.1467 3.98435 12.5242 4.0777 11.8981 4.12265C11.3075 4.16414 10.8443 4.41077 10.4397 4.82741C9.36502 5.93151 8.27816 7.02523 7.19883 8.12645C6.60468 8.73209 6.21283 9.44204 6.01053 10.2741C5.77113 11.2601 5.47782 12.2334 5.2019 13.2321C4.05997 13.3738 2.91456 13.2545 1.76857 13.2038C1.49207 13.1917 1.21326 13.1733 0.938497 13.1957C0.653883 13.2182 0.424338 13.5311 0.52346 13.7945C0.713009 14.301 0.776771 14.8732 1.20804 15.2795ZM22.6259 16.4095C22.3488 17.1702 21.8399 17.7937 21.244 18.3094C20.3194 19.1087 19.4598 19.999 18.3753 20.5977C17.7185 20.9602 17.042 21.2886 16.3667 21.6177C16.2334 21.6828 16.0653 21.6782 15.7338 21.7393C15.6074 19.3743 15.7094 17.146 15.7761 14.8548C16.6056 14.7793 17.3765 14.6952 18.1504 14.6444C18.9387 14.5926 19.7311 14.5373 20.52 14.5499C21.302 14.5632 22.0712 14.1558 22.9152 14.505C23.0804 15.1625 22.8514 15.7889 22.6259 16.4095ZM15.8648 6.34525C16.7511 6.15394 17.5527 6.45128 18.2541 6.85063C19.0662 7.31336 19.7885 7.94263 20.5188 8.53675C21.1686 9.06575 21.6388 9.74226 21.979 10.5121C22.212 11.0423 22.4851 11.5546 22.7726 12.1383C22.5106 12.215 22.3343 12.2812 22.1529 12.3152C21.8434 12.374 21.5304 12.4501 21.2191 12.4501C19.41 12.4535 17.613 12.8172 15.7111 12.6708C15.7036 12.4489 15.6943 12.2668 15.692 12.0842C15.674 10.7934 15.674 9.50255 15.6341 8.21231C15.6143 7.57959 15.6978 6.97452 15.8648 6.34525ZM9.69369 8.79433C9.9128 8.39614 10.3139 8.07632 10.6832 7.78473C11.4048 7.21424 12.2598 6.88002 13.1189 6.57345C13.2858 6.51352 13.4928 6.56423 13.7635 6.56423C13.7635 8.49122 13.7635 10.2534 13.7635 12.015C13.7629 12.1331 13.7745 12.2547 13.7513 12.3682C13.7026 12.6126 13.5878 12.8125 13.3154 12.8702C13.2772 12.8794 13.2377 12.8892 13.1983 12.8915C11.657 12.9566 10.1221 13.1986 8.5732 13.0672C8.54016 13.0638 8.5106 13.0211 8.42017 12.9526C8.4051 12.8581 8.35004 12.7071 8.36337 12.563C8.48915 11.1985 9.04679 9.97161 9.69369 8.79433ZM8.57958 15.2783C9.28967 15.2357 10.0015 15.2455 10.7116 15.2086C11.1023 15.1884 11.4964 15.1423 11.8773 15.0576C12.454 14.928 13.0244 14.8484 13.6742 14.9504C13.7113 15.6483 13.8296 16.3144 13.7646 16.9616C13.6354 18.2593 13.7502 19.5466 13.7733 20.8392C13.7797 21.1567 13.8313 21.4684 13.5542 21.7439C11.6582 21.9047 10.1255 21.1336 8.80971 19.825C8.368 19.3859 8.22715 18.8085 8.09383 18.2345C7.88805 17.3465 7.9379 16.4429 7.92573 15.4858C8.15295 15.4109 8.36337 15.2904 8.57958 15.2783Z" fill="#0052B4"/>
</svg>
